<svg width="322" height="170" viewBox="0 0 322 170" fill="none" xmlns="http://www.w3.org/2000/svg">
<rect x="1" y="1" width="320" height="168" rx="10.5187" fill="url(#paint0_linear_843_8840)"/>
<mask id="mask0_843_8840" style="mask-type:alpha" maskUnits="userSpaceOnUse" x="0" y="0" width="322" height="170">
<rect x="0.824689" y="0.824689" width="320.351" height="168.351" rx="10.694" fill="url(#paint1_linear_843_8840)" stroke="url(#paint2_radial_843_8840)" stroke-width="0.350622"/>
</mask>
<g mask="url(#mask0_843_8840)">
<path d="M310.85 65.6082C268.994 198.637 108.39 277.655 -47.9429 241.982C-204.275 206.309 -296.97 69.4911 -255.114 -63.5381C-213.257 -196.567 -52.6533 -275.585 103.679 -239.912C260.012 -204.239 352.706 -67.421 310.85 65.6082Z" stroke="white" stroke-opacity="0.16" stroke-width="0.701245"/>
<path d="M237.574 48.8883C206.561 147.455 87.5524 206.021 -28.3125 179.582C-144.177 153.143 -212.856 51.7487 -181.843 -46.8178C-150.831 -145.384 -31.8222 -203.95 84.0427 -177.511C199.908 -151.072 268.586 -49.6782 237.574 48.8883Z" stroke="white" stroke-opacity="0.16" stroke-width="0.701245"/>
<path d="M162.672 31.7962C142.744 95.1341 66.2554 132.794 -8.24239 115.794C-82.7402 98.7949 -126.87 33.6114 -106.941 -29.7265C-87.0129 -93.0643 -10.5248 -130.724 63.9731 -113.725C138.471 -96.7251 182.601 -31.5416 162.672 31.7962Z" stroke="white" stroke-opacity="0.16" stroke-width="0.701245"/>
<path d="M91.0324 15.4487C81.7062 45.0896 45.8895 62.7522 10.9602 54.7818C-23.9692 46.8113 -44.6172 16.2641 -35.2911 -13.3768C-25.9649 -43.0178 9.85179 -60.6804 44.7811 -52.7099C79.7105 -44.7395 100.359 -14.1922 91.0324 15.4487Z" stroke="white" stroke-opacity="0.16" stroke-width="0.701245"/>
</g>
<defs>
<linearGradient id="paint0_linear_843_8840" x1="9.25807" y1="169" x2="273.447" y2="94.8851" gradientUnits="userSpaceOnUse">
<stop stop-color="#313860"/>
<stop offset="1" stop-color="#151928"/>
</linearGradient>
<linearGradient id="paint1_linear_843_8840" x1="1" y1="1" x2="284.214" y2="222.51" gradientUnits="userSpaceOnUse">
<stop stop-color="white" stop-opacity="0.4"/>
<stop offset="1" stop-color="white" stop-opacity="0"/>
</linearGradient>
<radialGradient id="paint2_radial_843_8840" cx="0" cy="0" r="1" gradientUnits="userSpaceOnUse" gradientTransform="translate(1 1) rotate(33.2115) scale(356.977 535.799)">
<stop stop-color="white"/>
<stop offset="1" stop-color="white" stop-opacity="0"/>
</radialGradient>
</defs>
</svg>
