<svg width="30" height="32" viewBox="0 0 30 32" fill="none" xmlns="http://www.w3.org/2000/svg">
<g filter="url(#filter0_d_843_10937)">
<path d="M23 11.0366C23 12.7136 21.6405 14.0731 19.9634 14.0731C18.2864 14.0731 16.9269 12.7136 16.9269 11.0366C16.9269 9.35952 18.2864 8 19.9634 8C21.6405 8 23 9.35952 23 11.0366Z" fill="#4FD1C5"/>
<path d="M14.0731 11.0366C14.0731 12.7136 12.7136 14.0731 11.0366 14.0731C9.35952 14.0731 8 12.7136 8 11.0366C8 9.35952 9.35952 8 11.0366 8C12.7136 8 14.0731 9.35952 14.0731 11.0366Z" fill="#4FD1C5"/>
<path d="M23 19.9634C23 21.6405 21.6405 23 19.9634 23C18.2864 23 16.9269 21.6405 16.9269 19.9634C16.9269 18.2864 18.2864 16.9269 19.9634 16.9269C21.6405 16.9269 23 18.2864 23 19.9634Z" fill="#4FD1C5"/>
<path d="M14.0731 19.9634C14.0731 21.6405 12.7136 23 11.0366 23C9.35952 23 8 21.6405 8 19.9634C8 18.2864 9.35952 16.9269 11.0366 16.9269C12.7136 16.9269 14.0731 18.2864 14.0731 19.9634Z" fill="#4FD1C5"/>
</g>
<defs>
<filter id="filter0_d_843_10937" x="-5.5" y="-2" width="41" height="41" filterUnits="userSpaceOnUse" color-interpolation-filters="sRGB">
<feFlood flood-opacity="0" result="BackgroundImageFix"/>
<feColorMatrix in="SourceAlpha" type="matrix" values="0 0 0 0 0 0 0 0 0 0 0 0 0 0 0 0 0 0 127 0" result="hardAlpha"/>
<feOffset dy="3.5"/>
<feGaussianBlur stdDeviation="2.75"/>
<feComposite in2="hardAlpha" operator="out"/>
<feColorMatrix type="matrix" values="0 0 0 0 0 0 0 0 0 0 0 0 0 0 0 0 0 0 0.02 0"/>
<feBlend mode="normal" in2="BackgroundImageFix" result="effect1_dropShadow_843_10937"/>
<feBlend mode="normal" in="SourceGraphic" in2="effect1_dropShadow_843_10937" result="shape"/>
</filter>
</defs>
</svg>
