<svg width="18" height="18" viewBox="0 0 18 18" fill="none" xmlns="http://www.w3.org/2000/svg">
<path fill-rule="evenodd" clip-rule="evenodd" d="M16.6078 15.748H10.2308C9.8168 15.748 9.4808 16.084 9.4808 16.498C9.4808 16.912 9.8168 17.248 10.2308 17.248H16.6078C17.0218 17.248 17.3578 16.912 17.3578 16.498C17.3578 16.084 17.0218 15.748 16.6078 15.748Z" fill="#4FD1C5"/>
<path fill-rule="evenodd" clip-rule="evenodd" d="M6.36593 4.7396C6.46538 4.60734 6.65314 4.58058 6.78558 4.67979L11.9656 8.56019C12.0983 8.6596 12.1251 8.84781 12.0256 8.98041L7.2059 15.4002C6.0459 16.9502 4.2959 17.2602 3.0859 17.2602C2.3359 17.2602 1.7959 17.1402 1.7359 17.1302C1.6059 17.1002 1.4859 17.0102 1.4159 16.8902C1.3459 16.7602 -0.374097 13.7002 1.5459 11.1502L6.36593 4.7396Z" fill="#4FD1C5"/>
<path fill-rule="evenodd" clip-rule="evenodd" d="M13.9559 6.41023L13.2859 7.30096C13.1864 7.43319 12.9987 7.45992 12.8663 7.36073L7.68547 3.47969C7.55308 3.38052 7.52595 3.19289 7.62483 3.06027L8.29591 2.16023C8.98591 1.23023 10.0559 0.740234 11.1359 0.740234C11.8759 0.740234 12.6159 0.970234 13.2559 1.45023C14.0059 2.02023 14.4959 2.85023 14.6359 3.78023C14.7659 4.72023 14.5259 5.65023 13.9559 6.41023Z" fill="#4FD1C5"/>
</svg>
