<svg width="24" height="24" viewBox="0 0 24 24" fill="none" xmlns="http://www.w3.org/2000/svg">
<path fill-rule="evenodd" clip-rule="evenodd" d="M22.1706 11.5898L19.2426 8.67383C18.9486 8.38183 18.4746 8.38183 18.1826 8.67583C17.8906 8.96983 17.8916 9.44383 18.1846 9.73583L19.8246 11.3698H16.8896C16.8996 11.8698 16.8996 12.3698 16.8896 12.8698H19.8266L18.1846 14.5058C17.8916 14.7978 17.8906 15.2728 18.1826 15.5668C18.3286 15.7138 18.5216 15.7868 18.7136 15.7868C18.9046 15.7868 19.0966 15.7138 19.2426 15.5688L22.1706 12.6518C22.3126 12.5118 22.3916 12.3198 22.3916 12.1208C22.3916 11.9218 22.3126 11.7308 22.1706 11.5898Z" fill="#FB1D1D"/>
<path fill-rule="evenodd" clip-rule="evenodd" d="M8.63938 12.12C8.63938 11.71 8.96938 11.37 9.38938 11.37L16.8896 11.3698C16.8796 10.1098 16.8094 8.85 16.7094 7.59V7.58C16.3394 3.55 14.5094 2.25 9.20937 2.25C1.60938 2.25 1.60938 5.1 1.60938 12C1.60938 18.9 1.60938 21.75 9.20937 21.75C14.5094 21.75 16.3394 20.45 16.7094 16.41C16.8094 15.24 16.8696 14.0598 16.8896 12.8698L9.38938 12.87C8.96938 12.87 8.63938 12.54 8.63938 12.12Z" fill="#FB1D1D"/>
</svg>
