<svg width="26" height="20" viewBox="0 0 26 20" fill="none" xmlns="http://www.w3.org/2000/svg">
<path fill-rule="evenodd" clip-rule="evenodd" d="M19.4752 10.3083C18.3352 10.3083 17.2652 10.5383 16.3652 10.9283C19.5152 11.8383 21.7452 14.0183 21.8052 16.5683C23.4452 16.3583 25.2152 15.7383 25.2152 14.0483C25.2152 12.0183 22.5852 10.3083 19.4752 10.3083Z" fill="#4FD1C5"/>
<path fill-rule="evenodd" clip-rule="evenodd" d="M19.4452 8.86831H19.4652C21.5951 8.86831 23.3352 7.12831 23.3352 5.00831C23.3352 2.87831 21.5951 1.13831 19.4652 1.13831C19.0452 1.13831 18.6452 1.20831 18.2652 1.32831C18.9552 2.34831 19.3552 3.57831 19.3552 4.90831C19.3652 6.25831 18.9452 7.55831 18.1552 8.63831C18.5652 8.78831 18.9952 8.86831 19.4452 8.86831Z" fill="#4FD1C5"/>
<path fill-rule="evenodd" clip-rule="evenodd" d="M9.62516 10.9183C8.72516 10.5383 7.65516 10.3083 6.52516 10.3083C3.41516 10.3083 0.785156 12.0183 0.785156 14.0483C0.785156 15.7383 2.54516 16.3483 4.18516 16.5683C4.23516 14.0183 6.46516 11.8383 9.62516 10.9183Z" fill="#4FD1C5"/>
<path fill-rule="evenodd" clip-rule="evenodd" d="M6.52516 8.86831H6.55516C7.00516 8.86831 7.43516 8.78831 7.84516 8.63831C7.08516 7.59831 6.63516 6.30831 6.63516 4.90831C6.63516 3.57831 7.03516 2.34831 7.72516 1.32831C7.34516 1.20831 6.94516 1.13831 6.52516 1.13831C4.39516 1.13831 2.66516 2.87831 2.66516 5.00831C2.66516 7.12831 4.39516 8.86831 6.52516 8.86831Z" fill="#4FD1C5"/>
<path fill-rule="evenodd" clip-rule="evenodd" d="M12.9948 11.9453C9.03377 11.9453 5.68677 14.1013 5.68677 16.6533C5.68677 19.9533 11.1868 19.9533 12.9948 19.9533C16.1328 19.9533 20.3048 19.6133 20.3048 16.6743C20.3048 14.1103 16.9568 11.9453 12.9948 11.9453Z" fill="#4FD1C5"/>
<path fill-rule="evenodd" clip-rule="evenodd" d="M12.9958 9.77439H13.0288C14.3238 9.77039 15.5398 9.26139 16.4518 8.34239C17.3648 7.42339 17.8648 6.20439 17.8598 4.91139C17.8598 2.22839 15.6788 0.0463867 12.9958 0.0463867C10.3138 0.0463867 8.13275 2.22839 8.13275 4.91139C8.13275 7.59239 10.3138 9.77439 12.9958 9.77439Z" fill="#4FD1C5"/>
</svg>
