<svg width="30" height="32" viewBox="0 0 30 32" fill="none" xmlns="http://www.w3.org/2000/svg">
<g filter="url(#filter0_d_5413_959)">
<path fill-rule="evenodd" clip-rule="evenodd" d="M21.8547 15.2436L20.0247 13.4211C19.841 13.2386 19.5447 13.2386 19.3622 13.4224C19.1797 13.6061 19.1803 13.9024 19.3635 14.0849L20.3885 15.1061H18.5541C18.5603 15.4186 18.5603 15.7311 18.5541 16.0436H20.3897L19.3635 17.0661C19.1803 17.2486 19.1797 17.5455 19.3622 17.7293C19.4535 17.8211 19.5741 17.8668 19.6941 17.8668C19.8135 17.8668 19.9335 17.8211 20.0247 17.7305L21.8547 15.9074C21.9435 15.8199 21.9928 15.6999 21.9928 15.5755C21.9928 15.4511 21.9435 15.3318 21.8547 15.2436Z" fill="#4FD1C5"/>
<path fill-rule="evenodd" clip-rule="evenodd" d="M13.3977 15.575C13.3977 15.3187 13.6039 15.1062 13.8664 15.1062L18.5541 15.1061C18.5478 14.3186 18.5039 13.5312 18.4414 12.7438V12.7375C18.2102 10.2187 17.0664 9.40625 13.7539 9.40625C9.00391 9.40625 9.00391 11.1875 9.00391 15.5C9.00391 19.8125 9.00391 21.5938 13.7539 21.5938C17.0664 21.5938 18.2102 20.7812 18.4414 18.2563C18.5039 17.525 18.5416 16.7874 18.5541 16.0436L13.8664 16.0437C13.6039 16.0437 13.3977 15.8375 13.3977 15.575Z" fill="#4FD1C5"/>
</g>
<defs>
<filter id="filter0_d_5413_959" x="-5.5" y="-2" width="41" height="41" filterUnits="userSpaceOnUse" color-interpolation-filters="sRGB">
<feFlood flood-opacity="0" result="BackgroundImageFix"/>
<feColorMatrix in="SourceAlpha" type="matrix" values="0 0 0 0 0 0 0 0 0 0 0 0 0 0 0 0 0 0 127 0" result="hardAlpha"/>
<feOffset dy="3.5"/>
<feGaussianBlur stdDeviation="2.75"/>
<feComposite in2="hardAlpha" operator="out"/>
<feColorMatrix type="matrix" values="0 0 0 0 0 0 0 0 0 0 0 0 0 0 0 0 0 0 0.02 0"/>
<feBlend mode="normal" in2="BackgroundImageFix" result="effect1_dropShadow_5413_959"/>
<feBlend mode="normal" in="SourceGraphic" in2="effect1_dropShadow_5413_959" result="shape"/>
</filter>
</defs>
</svg>
