<svg width="30" height="32" viewBox="0 0 30 32" fill="none" xmlns="http://www.w3.org/2000/svg">
<g filter="url(#filter0_d_843_10982)">
<path fill-rule="evenodd" clip-rule="evenodd" d="M19.1 16.6575C19.1 16.9163 18.89 17.1263 18.6313 17.1263C18.3725 17.1263 18.1625 16.9163 18.1625 16.6575V15.9688H17.3325V16.6575C17.3325 16.9163 17.1225 17.1263 16.8637 17.1263C16.605 17.1263 16.395 16.9163 16.395 16.6575V15.9688H15.0725C14.87 16.6363 14.2556 17.1263 13.5231 17.1263C12.6269 17.1263 11.8975 16.3969 11.8975 15.5C11.8975 14.6038 12.6269 13.8744 13.5231 13.8744C14.2569 13.875 14.87 14.365 15.0725 15.0312H18.6313C18.89 15.0312 19.1 15.2413 19.1 15.5V16.6575ZM15.5 9.40625C11.0013 9.40625 9.40625 11.0013 9.40625 15.5C9.40625 19.9994 11.0013 21.5938 15.5 21.5938C19.9987 21.5938 21.5938 19.9994 21.5938 15.5C21.5938 11.0013 19.9987 9.40625 15.5 9.40625Z" fill="#4FD1C5"/>
<path fill-rule="evenodd" clip-rule="evenodd" d="M13.5244 14.8118C13.1438 14.8118 12.8344 15.1205 12.8344 15.5005C12.8344 15.8799 13.1438 16.1886 13.5232 16.1886C13.9032 16.1886 14.2126 15.8799 14.2126 15.5005C14.2126 15.1211 13.9038 14.8124 13.5244 14.8118Z" fill="#4FD1C5"/>
</g>
<defs>
<filter id="filter0_d_843_10982" x="-5.5" y="-2" width="41" height="41" filterUnits="userSpaceOnUse" color-interpolation-filters="sRGB">
<feFlood flood-opacity="0" result="BackgroundImageFix"/>
<feColorMatrix in="SourceAlpha" type="matrix" values="0 0 0 0 0 0 0 0 0 0 0 0 0 0 0 0 0 0 127 0" result="hardAlpha"/>
<feOffset dy="3.5"/>
<feGaussianBlur stdDeviation="2.75"/>
<feComposite in2="hardAlpha" operator="out"/>
<feColorMatrix type="matrix" values="0 0 0 0 0 0 0 0 0 0 0 0 0 0 0 0 0 0 0.02 0"/>
<feBlend mode="normal" in2="BackgroundImageFix" result="effect1_dropShadow_843_10982"/>
<feBlend mode="normal" in="SourceGraphic" in2="effect1_dropShadow_843_10982" result="shape"/>
</filter>
</defs>
</svg>
