<svg width="20" height="20" viewBox="0 0 20 20" fill="none" xmlns="http://www.w3.org/2000/svg">
<path fill-rule="evenodd" clip-rule="evenodd" d="M16.16 9.80002C16.16 10.214 15.824 10.55 15.41 10.55C14.996 10.55 14.66 10.214 14.66 9.80002C14.66 9.38602 14.996 9.05002 15.41 9.05002C15.824 9.05002 16.16 9.38602 16.16 9.80002ZM13.457 9.86002C13.457 10.859 14.271 11.672 15.27 11.672H19.73C19.772 11.144 19.8 10.595 19.8 10C19.8 9.29802 19.765 8.65502 19.706 8.04602H15.27C14.271 8.04602 13.457 8.86002 13.457 9.86002Z" fill="#4FD1C5"/>
<path fill-rule="evenodd" clip-rule="evenodd" d="M9.65122 6.64094H5.59122C5.17722 6.64094 4.84122 6.30494 4.84122 5.89094C4.84122 5.47694 5.17722 5.14094 5.59122 5.14094H9.65122C10.0652 5.14094 10.4012 5.47694 10.4012 5.89094C10.4012 6.30494 10.0652 6.64094 9.65122 6.64094ZM15.2702 13.1719C13.4432 13.1719 11.9572 11.6859 11.9572 9.85994C11.9572 8.03294 13.4432 6.54594 15.2702 6.54594H19.4802C18.6022 2.49194 15.8092 0.960938 10.0002 0.960938C2.76422 0.960938 0.199219 3.32694 0.199219 9.99994C0.199219 16.6739 2.76422 19.0389 10.0002 19.0389C15.9422 19.0389 18.7302 17.4389 19.5382 13.1719H15.2702Z" fill="#4FD1C5"/>
</svg>
