<svg width="15" height="15" viewBox="0 0 20 20" fill="none" xmlns="http://www.w3.org/2000/svg">
<path fill-rule="evenodd" clip-rule="evenodd" d="M7.50356 5.13684C7.24793 4.65371 5.89606 2.24121 4.40168 2.24121C2.90731 2.24121 1.55481 4.65371 1.29918 5.13684C1.13793 5.44184 1.25418 5.81996 1.55918 5.98184C1.86293 6.14121 2.24231 6.02684 2.40418 5.72184C2.77293 5.02684 3.31293 4.28621 3.77668 3.85746V10.7531C3.77668 11.0987 4.05606 11.3781 4.40168 11.3781C4.74731 11.3781 5.02668 11.0987 5.02668 10.7531V3.85746C5.49043 4.28684 6.03043 5.02684 6.39856 5.72184C6.51106 5.93309 6.72793 6.05434 6.95168 6.05434C7.05043 6.05434 7.15106 6.03059 7.24356 5.98184C7.54856 5.81996 7.66481 5.44184 7.50356 5.13684Z" fill="#4FD1C5"/>
<path fill-rule="evenodd" clip-rule="evenodd" d="M13.4441 9.02052C13.1416 8.85865 12.7609 8.9749 12.5991 9.27927C12.2316 9.97302 11.6941 10.7118 11.2328 11.1411V4.2474C11.2328 3.9024 10.9534 3.6224 10.6078 3.6224C10.2622 3.6224 9.98281 3.9024 9.98281 4.2474V11.1436C9.51906 10.7149 8.97906 9.9749 8.61031 9.27927C8.44844 8.9749 8.06719 8.85802 7.76531 9.02052C7.46031 9.18177 7.34406 9.55927 7.50531 9.8649C7.76094 10.348 9.11281 12.7593 10.6078 12.7593C12.0966 12.7593 13.4484 10.348 13.7041 9.8649C13.8653 9.55927 13.7491 9.18177 13.4441 9.02052Z" fill="#4FD1C5"/>
</svg>
