<svg width="5" height="5" viewBox="0 0 15 22" fill="none" xmlns="http://www.w3.org/2000/svg">
<path fill-rule="evenodd" clip-rule="evenodd" d="M6.50313 4.78125H6.4975C6.23875 4.78125 6.02875 4.57125 6.02875 4.3125C6.02875 4.05375 6.23875 3.84375 6.4975 3.84375C6.75625 3.84375 6.96938 4.05375 6.96938 4.3125C6.96938 4.57125 6.76188 4.78125 6.50313 4.78125ZM6.96875 8.93438C6.96875 9.19313 6.75875 9.40313 6.5 9.40313C6.24125 9.40313 6.03125 9.19313 6.03125 8.93438V6.5C6.03125 6.24125 6.24125 6.03125 6.5 6.03125C6.75875 6.03125 6.96875 6.24125 6.96875 6.5V8.93438ZM6.5 0.40625C2.00125 0.40625 0.40625 2.00125 0.40625 6.5C0.40625 10.9987 2.00125 12.5938 6.5 12.5938C10.9987 12.5938 12.5938 10.9987 12.5938 6.5C12.5938 2.00125 10.9987 0.40625 6.5 0.40625Z" fill="#4FD1C5"/>
</svg>
