<svg width="30" height="32" viewBox="0 0 30 32" fill="none" xmlns="http://www.w3.org/2000/svg">
<g filter="url(#filter0_d_843_10993)">
<path fill-rule="evenodd" clip-rule="evenodd" d="M17.9711 16.3851C17.6261 16.3851 17.3429 16.1057 17.3429 15.7601C17.3429 15.4145 17.6198 15.1351 17.9654 15.1351H17.9711C18.3161 15.1351 18.5961 15.4145 18.5961 15.7601C18.5961 16.1057 18.3161 16.3851 17.9711 16.3851ZM15.4654 16.3851C15.1198 16.3851 14.8373 16.1057 14.8373 15.7601C14.8373 15.4145 15.1148 15.1351 15.4598 15.1351H15.4654C15.8104 15.1351 16.0904 15.4145 16.0904 15.7601C16.0904 16.1057 15.8104 16.3851 15.4654 16.3851ZM12.9598 16.3851C12.6148 16.3851 12.3323 16.1057 12.3323 15.7601C12.3323 15.4145 12.6086 15.1351 12.9542 15.1351H12.9598C13.3048 15.1351 13.5848 15.4145 13.5848 15.7601C13.5848 16.1057 13.3048 16.3851 12.9598 16.3851ZM20.1436 10.8601C18.9054 9.62195 17.2573 8.93945 15.5036 8.93945C13.7498 8.93945 12.1017 9.62195 10.8636 10.8601C8.92482 12.7995 8.39607 15.7757 9.53669 18.2345C9.55732 18.3357 9.50169 18.7476 9.46169 19.0488C9.31044 20.1776 9.23294 21.0063 9.61607 21.3901C9.99857 21.7732 10.8267 21.6957 11.9554 21.5438C12.2567 21.5038 12.6736 21.4501 12.7386 21.457C13.6173 21.8638 14.5567 22.0607 15.4892 22.0607C17.2004 22.0607 18.8892 21.397 20.1436 20.142C22.7017 17.5826 22.7023 13.4188 20.1436 10.8601Z" fill="#4FD1C5"/>
</g>
<defs>
<filter id="filter0_d_843_10993" x="-5.5" y="-2" width="41" height="41" filterUnits="userSpaceOnUse" color-interpolation-filters="sRGB">
<feFlood flood-opacity="0" result="BackgroundImageFix"/>
<feColorMatrix in="SourceAlpha" type="matrix" values="0 0 0 0 0 0 0 0 0 0 0 0 0 0 0 0 0 0 127 0" result="hardAlpha"/>
<feOffset dy="3.5"/>
<feGaussianBlur stdDeviation="2.75"/>
<feComposite in2="hardAlpha" operator="out"/>
<feColorMatrix type="matrix" values="0 0 0 0 0 0 0 0 0 0 0 0 0 0 0 0 0 0 0.02 0"/>
<feBlend mode="normal" in2="BackgroundImageFix" result="effect1_dropShadow_843_10993"/>
<feBlend mode="normal" in="SourceGraphic" in2="effect1_dropShadow_843_10993" result="shape"/>
</filter>
</defs>
</svg>
